<svg width="195" height="41" viewBox="0 0 195 41" fill="none" xmlns="http://www.w3.org/2000/svg">
<path d="M3.22128 24.766L3.44528 26.39H3.45928L3.69728 24.738L5.71328 18.2H6.27328L8.30328 24.766L8.54128 26.39H8.55528L8.80728 24.738L10.4593 18.2H11.5933L8.86328 28.154H8.21928L6.23128 21.588L5.97928 20.104H5.90928L5.65728 21.602L3.66928 28.154H3.02528L0.225281 18.2H1.45728L3.22128 24.766ZM12.897 18.2H18.231V19.236H14.059V22.442H17.881V23.478H14.059V26.964H18.301V28H12.897V18.2ZM26.3109 20.44C26.3109 20.6733 26.2736 20.9113 26.1989 21.154C26.1242 21.3967 26.0122 21.6253 25.8629 21.84C25.7136 22.0453 25.5222 22.2273 25.2889 22.386C25.0556 22.5447 24.7802 22.666 24.4629 22.75V22.806C24.7429 22.8527 25.0089 22.932 25.2609 23.044C25.5222 23.156 25.7509 23.31 25.9469 23.506C26.1429 23.702 26.3016 23.94 26.4229 24.22C26.5442 24.5 26.6049 24.8313 26.6049 25.214C26.6049 25.718 26.4976 26.1567 26.2829 26.53C26.0776 26.894 25.8022 27.1927 25.4569 27.426C25.1209 27.6593 24.7336 27.832 24.2949 27.944C23.8562 28.056 23.4082 28.112 22.9509 28.112C22.7922 28.112 22.6056 28.112 22.3909 28.112C22.1762 28.112 21.9522 28.1027 21.7189 28.084C21.4856 28.0747 21.2522 28.056 21.0189 28.028C20.7856 28.0093 20.5802 27.9767 20.4029 27.93V18.284C20.7482 18.228 21.1496 18.1813 21.6069 18.144C22.0642 18.1067 22.5636 18.088 23.1049 18.088C23.4689 18.088 23.8376 18.1207 24.2109 18.186C24.5936 18.242 24.9389 18.3587 25.2469 18.536C25.5549 18.704 25.8069 18.942 26.0029 19.25C26.2082 19.558 26.3109 19.9547 26.3109 20.44ZM23.0629 27.104C23.3616 27.104 23.6509 27.0713 23.9309 27.006C24.2109 26.9313 24.4582 26.8193 24.6729 26.67C24.8876 26.5113 25.0556 26.32 25.1769 26.096C25.3076 25.872 25.3729 25.606 25.3729 25.298C25.3729 24.9153 25.2936 24.6073 25.1349 24.374C24.9856 24.1407 24.7849 23.9587 24.5329 23.828C24.2902 23.6973 24.0149 23.6087 23.7069 23.562C23.3989 23.5153 23.0909 23.492 22.7829 23.492H21.5649V27.006C21.6302 27.0247 21.7236 27.0387 21.8449 27.048C21.9662 27.0573 22.0969 27.0667 22.2369 27.076C22.3769 27.0853 22.5216 27.0947 22.6709 27.104C22.8202 27.104 22.9509 27.104 23.0629 27.104ZM22.2929 22.512C22.4516 22.512 22.6429 22.5073 22.8669 22.498C23.0909 22.4887 23.2776 22.4747 23.4269 22.456C23.6509 22.3813 23.8609 22.2927 24.0569 22.19C24.2529 22.078 24.4256 21.952 24.5749 21.812C24.7336 21.6627 24.8549 21.4947 24.9389 21.308C25.0322 21.112 25.0789 20.902 25.0789 20.678C25.0789 20.37 25.0182 20.118 24.8969 19.922C24.7849 19.7167 24.6309 19.5533 24.4349 19.432C24.2389 19.3107 24.0149 19.2267 23.7629 19.18C23.5109 19.124 23.2542 19.096 22.9929 19.096C22.6849 19.096 22.4002 19.1053 22.1389 19.124C21.8869 19.1333 21.6956 19.152 21.5649 19.18V22.512H22.2929ZM33.0027 25.508C33.0027 25.116 32.886 24.7987 32.6527 24.556C32.4193 24.304 32.1253 24.0847 31.7707 23.898C31.4253 23.702 31.0473 23.52 30.6367 23.352C30.226 23.184 29.8433 22.9833 29.4887 22.75C29.1433 22.5073 28.854 22.2133 28.6207 21.868C28.3873 21.5133 28.2707 21.0653 28.2707 20.524C28.2707 19.7587 28.5367 19.152 29.0687 18.704C29.6007 18.256 30.3567 18.032 31.3367 18.032C31.906 18.032 32.424 18.074 32.8907 18.158C33.3573 18.242 33.7213 18.3493 33.9827 18.48L33.6327 19.502C33.418 19.3993 33.1007 19.3013 32.6807 19.208C32.27 19.1147 31.8033 19.068 31.2807 19.068C30.6647 19.068 30.2027 19.208 29.8947 19.488C29.5867 19.7587 29.4327 20.0807 29.4327 20.454C29.4327 20.818 29.5493 21.1213 29.7827 21.364C30.016 21.6067 30.3053 21.826 30.6507 22.022C31.0053 22.2087 31.388 22.3953 31.7987 22.582C32.2093 22.7687 32.5873 22.988 32.9327 23.24C33.2873 23.4827 33.5813 23.7767 33.8147 24.122C34.048 24.4673 34.1647 24.8967 34.1647 25.41C34.1647 25.83 34.09 26.208 33.9407 26.544C33.7913 26.88 33.572 27.1693 33.2827 27.412C32.9933 27.6547 32.6433 27.8413 32.2327 27.972C31.822 28.1027 31.3553 28.168 30.8327 28.168C30.1327 28.168 29.554 28.112 29.0967 28C28.6393 27.8973 28.2847 27.7807 28.0327 27.65L28.4247 26.6C28.6393 26.7213 28.9567 26.8427 29.3767 26.964C29.7967 27.076 30.268 27.132 30.7907 27.132C31.0987 27.132 31.388 27.104 31.6587 27.048C31.9293 26.9827 32.1627 26.8847 32.3587 26.754C32.5547 26.614 32.7087 26.4413 32.8207 26.236C32.942 26.0307 33.0027 25.788 33.0027 25.508ZM36.2822 18.2H37.4442V28H36.2822V18.2ZM46.4184 19.236H43.3664V28H42.2044V19.236H39.1524V18.2H46.4184V19.236ZM47.856 18.2H53.19V19.236H49.018V22.442H52.84V23.478H49.018V26.964H53.26V28H47.856V18.2ZM65.0023 20.44C65.0023 20.6733 64.965 20.9113 64.8903 21.154C64.8156 21.3967 64.7036 21.6253 64.5543 21.84C64.405 22.0453 64.2136 22.2273 63.9803 22.386C63.747 22.5447 63.4716 22.666 63.1543 22.75V22.806C63.4343 22.8527 63.7003 22.932 63.9523 23.044C64.2136 23.156 64.4423 23.31 64.6383 23.506C64.8343 23.702 64.993 23.94 65.1143 24.22C65.2356 24.5 65.2963 24.8313 65.2963 25.214C65.2963 25.718 65.189 26.1567 64.9743 26.53C64.769 26.894 64.4936 27.1927 64.1483 27.426C63.8123 27.6593 63.425 27.832 62.9863 27.944C62.5476 28.056 62.0996 28.112 61.6423 28.112C61.4836 28.112 61.297 28.112 61.0823 28.112C60.8676 28.112 60.6436 28.1027 60.4103 28.084C60.177 28.0747 59.9436 28.056 59.7103 28.028C59.477 28.0093 59.2716 27.9767 59.0943 27.93V18.284C59.4396 18.228 59.841 18.1813 60.2983 18.144C60.7556 18.1067 61.255 18.088 61.7963 18.088C62.1603 18.088 62.529 18.1207 62.9023 18.186C63.285 18.242 63.6303 18.3587 63.9383 18.536C64.2463 18.704 64.4983 18.942 64.6943 19.25C64.8996 19.558 65.0023 19.9547 65.0023 20.44ZM61.7543 27.104C62.053 27.104 62.3423 27.0713 62.6223 27.006C62.9023 26.9313 63.1496 26.8193 63.3643 26.67C63.579 26.5113 63.747 26.32 63.8683 26.096C63.999 25.872 64.0643 25.606 64.0643 25.298C64.0643 24.9153 63.985 24.6073 63.8263 24.374C63.677 24.1407 63.4763 23.9587 63.2243 23.828C62.9816 23.6973 62.7063 23.6087 62.3983 23.562C62.0903 23.5153 61.7823 23.492 61.4743 23.492H60.2563V27.006C60.3216 27.0247 60.415 27.0387 60.5363 27.048C60.6576 27.0573 60.7883 27.0667 60.9283 27.076C61.0683 27.0853 61.213 27.0947 61.3623 27.104C61.5116 27.104 61.6423 27.104 61.7543 27.104ZM60.9843 22.512C61.143 22.512 61.3343 22.5073 61.5583 22.498C61.7823 22.4887 61.969 22.4747 62.1183 22.456C62.3423 22.3813 62.5523 22.2927 62.7483 22.19C62.9443 22.078 63.117 21.952 63.2663 21.812C63.425 21.6627 63.5463 21.4947 63.6303 21.308C63.7236 21.112 63.7703 20.902 63.7703 20.678C63.7703 20.37 63.7096 20.118 63.5883 19.922C63.4763 19.7167 63.3223 19.5533 63.1263 19.432C62.9303 19.3107 62.7063 19.2267 62.4543 19.18C62.2023 19.124 61.9456 19.096 61.6843 19.096C61.3763 19.096 61.0916 19.1053 60.8303 19.124C60.5783 19.1333 60.387 19.152 60.2563 19.18V22.512H60.9843ZM69.4261 24.108L66.1921 18.2H67.5501L69.8461 22.484L70.0841 23.338H70.0981L70.3501 22.456L72.5481 18.2H73.7941L70.5881 24.094V28H69.4261V24.108Z" fill="black"/>
<path fill-rule="evenodd" clip-rule="evenodd" d="M95.5197 1.05737H95.3509L80 2.71895V31.4945L95.3509 40.8382L110.702 31.4945V2.71895L95.5197 1.05737ZM157.018 2.62185H155.088V15.7311H157.018V2.62185ZM120.862 2.63264V7.76843C121.613 6.9864 122.639 6.5436 123.711 6.53843C124.682 6.47908 125.633 6.84495 126.325 7.54479C127.018 8.24462 127.387 9.21244 127.34 10.2068V15.7634H125.367V10.4658C125.423 9.94897 125.275 9.43059 124.957 9.02553C124.638 8.62047 124.174 8.36218 123.668 8.3079H123.352C122.346 8.36979 121.432 8.9295 120.904 9.80764V15.7634H118.9V2.63264H120.862ZM157.018 31.4837H155.278V30.0595C154.483 31.1353 153.23 31.7538 151.912 31.7211C149.475 31.5528 147.583 29.4822 147.583 26.9845C147.583 24.4867 149.475 22.4162 151.912 22.2479C153.119 22.2052 154.282 22.7203 155.077 23.6505V18.3205H157.018V31.4837ZM127.066 30.0595C127.263 30.0515 127.458 30.0152 127.646 29.9516V31.3866C127.248 31.5404 126.826 31.6172 126.401 31.6132C125.648 31.6769 124.939 31.2429 124.639 30.5342C123.704 31.31 122.53 31.7227 121.326 31.6995C119.733 31.6995 118.256 30.804 118.256 28.9482C118.256 26.65 120.366 25.9379 122.17 25.9379C122.94 25.9505 123.707 26.0408 124.46 26.2076V25.884C124.46 24.805 123.658 23.9742 122.149 23.9742C121.059 23.9764 119.98 24.2116 118.984 24.6647V22.8305C120.068 22.451 121.204 22.2506 122.35 22.2371C124.839 22.2371 126.369 23.4455 126.369 26.1753V29.4121C126.355 29.5668 126.401 29.721 126.498 29.8406C126.595 29.9601 126.735 30.035 126.886 30.0487H127.066V30.0595ZM120.271 28.8403C120.298 29.229 120.476 29.5905 120.766 29.844C121.055 30.0974 121.432 30.2217 121.811 30.189H121.928C122.882 30.1906 123.797 29.8022 124.47 29.11V27.5779C123.842 27.4414 123.203 27.3655 122.561 27.3513C121.506 27.3513 120.282 27.7074 120.282 28.8403H120.271ZM136.023 22.9384C135.196 22.4632 134.26 22.2246 133.311 22.2479H132.942C131.733 22.2873 130.589 22.8166 129.762 23.7192C128.935 24.6218 128.492 25.8236 128.532 27.06V27.5024C128.696 30.0004 130.805 31.8921 133.248 31.7318C134.252 31.7555 135.248 31.5452 136.16 31.1168V29.2718C135.377 29.7215 134.494 29.9591 133.596 29.9624C132.52 30.0288 131.496 29.4793 130.938 28.5356C130.381 27.5918 130.381 26.4095 130.938 25.4658C131.496 24.522 132.52 23.9725 133.596 24.039C134.461 24.0357 135.307 24.2989 136.023 24.7942V22.9384ZM146.151 30.0595C146.349 30.0515 146.544 30.0152 146.732 29.9516V31.3866C146.334 31.5404 145.912 31.6172 145.487 31.6132C144.734 31.6769 144.025 31.2429 143.725 30.5342C142.789 31.31 141.616 31.7227 140.412 31.6995C138.819 31.6995 137.342 30.804 137.342 28.9482C137.342 26.65 139.452 25.9379 141.256 25.9379C142.026 25.9505 142.793 26.0408 143.545 26.2076V25.884C143.545 24.805 142.744 23.9742 141.235 23.9742C140.144 23.9764 139.066 24.2116 138.07 24.6647V22.8305C139.154 22.451 140.29 22.2506 141.435 22.2371C143.925 22.2371 145.455 23.4455 145.455 26.1753V29.4121C145.44 29.5668 145.487 29.721 145.584 29.8406C145.681 29.9601 145.821 30.035 145.972 30.0487H146.151V30.0595ZM139.855 29.8481C139.563 29.5943 139.384 29.2311 139.357 28.8403H139.378C139.378 27.7074 140.539 27.3513 141.657 27.3513C142.299 27.3655 142.938 27.4414 143.567 27.5779V29.11C142.894 29.8022 141.978 30.1906 141.024 30.189H140.908C140.526 30.2247 140.147 30.1019 139.855 29.8481ZM149.327 26.9305C149.327 25.2859 150.631 23.9526 152.239 23.9526L152.26 24.0066C153.474 24.0066 154.574 24.7382 155.067 25.8732V28.0311C154.586 29.1871 153.467 29.9296 152.239 29.9084C150.631 29.9084 149.327 28.5752 149.327 26.9305ZM163.349 22.2479C166.841 22.2479 168.054 25.1395 167.484 27.7397H160.922C161.144 29.3582 162.684 30.0163 164.288 30.0163C165.251 30.0196 166.203 29.8021 167.073 29.3797V31.1061C166.074 31.5421 164.994 31.7519 163.908 31.7211C161.239 31.7211 158.896 30.189 158.896 26.9521C158.836 25.7502 159.248 24.5736 160.041 23.6841C160.833 22.7945 161.941 22.2658 163.117 22.2155H163.349V22.2479ZM160.869 26.1753C160.97 24.8237 162.122 23.8104 163.444 23.9095H163.486C164.106 23.8531 164.72 24.08 165.161 24.5295C165.603 24.979 165.828 25.6051 165.775 26.24H160.869V26.1753ZM169.489 31.4621V22.4961H171.23V23.575C171.978 22.7197 173.041 22.2229 174.163 22.2047C175.295 22.1328 176.371 22.7163 176.948 23.7153C177.741 22.8335 178.848 22.3161 180.018 22.2803C180.952 22.2327 181.859 22.6011 182.507 23.2901C183.154 23.9792 183.478 24.9213 183.394 25.8732V31.4837H181.39V25.9271C181.437 25.4734 181.306 25.0191 181.024 24.6647C180.743 24.3104 180.336 24.0852 179.892 24.039H179.617C178.751 24.0941 177.953 24.536 177.433 25.2474V31.4837H175.429V25.9271C175.473 25.47 175.336 25.0139 175.048 24.6611C174.761 24.3082 174.347 24.088 173.899 24.0497H173.688C172.747 24.1344 171.891 24.6449 171.356 25.4416V31.5161H169.531L169.489 31.4621ZM193.977 22.4745H191.972L189.324 29.2718L186.306 22.4853H184.196L188.417 31.5484L188.237 32.0016C187.72 33.3611 187.003 34.0516 186.053 34.0516C185.75 34.0548 185.447 34.0112 185.156 33.9221V35.6161C185.536 35.7125 185.926 35.7632 186.317 35.7671C187.646 35.7671 188.902 35.0226 189.851 32.6813L193.977 22.4745ZM132.689 6.78658V3.54974L130.727 4.01369V6.73264H129.144V8.49132H130.79V12.9905C130.723 13.817 131.024 14.6301 131.61 15.2038C132.195 15.7775 133.003 16.0505 133.807 15.9468C134.6 15.9535 135.387 15.8259 136.139 15.5692V13.8429C135.573 14.0781 134.967 14.199 134.356 14.199C133.217 14.199 132.689 13.8105 132.689 12.6237V8.5129H135.854V6.78658H132.689ZM138.386 15.7526V6.75421H140.138V7.83316C140.881 6.97655 141.94 6.476 143.06 6.45211C144.162 6.38099 145.215 6.93142 145.803 7.88711C146.596 7.00534 147.703 6.48794 148.873 6.45211C149.814 6.41462 150.723 6.79859 151.364 7.50353C152.005 8.20846 152.313 9.16418 152.207 10.1205V15.7418H150.203V10.1853C150.25 9.73151 150.118 9.27721 149.837 8.92287C149.556 8.56853 149.149 8.34334 148.705 8.29711H148.462C147.596 8.35228 146.797 8.7942 146.278 9.50553V15.7418H144.273V10.1853C144.321 9.73151 144.189 9.27721 143.908 8.92287C143.627 8.56853 143.219 8.34334 142.775 8.29711H142.533C141.591 8.38181 140.736 8.89229 140.201 9.68895V15.7634H138.386V15.7526ZM108.697 30.3033L108.708 30.2968L108.697 30.3184V30.3033ZM108.697 18.3205V30.3033L95.3509 38.4321L82.0046 30.3184V18.5147L95.2876 26.6068V28.0311L86.1826 22.5284V23.9418L95.3404 29.5632V31.0629L86.1931 25.4955V26.9521L95.3509 32.5734L104.583 26.9197V20.8129L108.697 18.3205ZM108.708 16.7776L105.036 18.9355L103.348 20.0145L95.3087 15.0837V16.4971L102.156 20.7266L102.008 20.8237L100.953 21.4063L95.2876 17.9537V19.3995L99.761 22.1184L98.706 22.8413L95.3298 20.7913V22.2047L97.5454 23.5426L95.2982 24.9021L82.1101 16.864L95.3087 8.72869L108.708 16.7776ZM95.2876 7.27211L108.708 15.3534V4.56395L95.3615 3.12895L82.0151 4.56395V15.3534L95.2876 7.27211Z" fill="#81B3D2"/>
</svg>
